<svg xmlns="http://www.w3.org/2000/svg" viewBox="0 0 900 700" width="900" height="700" role="img" aria-label="decorative artwork"><defs><linearGradient id="bga618889" x1="0" y1="0" x2="1" y2="1"><stop offset="0" stop-color="#060a22"/><stop offset="0.5" stop-color="#151D5C"/><stop offset="1" stop-color="#060a22"/></linearGradient><filter id="bla618889" x="-40%" y="-40%" width="180%" height="180%"><feGaussianBlur stdDeviation="76"/></filter><filter id="gla618889" x="-60%" y="-60%" width="220%" height="220%"><feGaussianBlur stdDeviation="8" result="b"/><feMerge><feMergeNode in="b"/><feMergeNode in="SourceGraphic"/></feMerge></filter><filter id="gra618889" x="0" y="0" width="100%" height="100%"><feTurbulence type="fractalNoise" baseFrequency="0.9" numOctaves="3" stitchTiles="stitch"/><feColorMatrix type="saturate" values="0"/></filter><pattern id="dta618889" width="30" height="30" patternUnits="userSpaceOnUse"><circle cx="1.8" cy="1.8" r="1.5" fill="#ffb870" fill-opacity="0.16"/></pattern><radialGradient id="spa618889" cx="50%" cy="47%" r="42%"><stop offset="0" stop-color="#f0871e" stop-opacity="0.34"/><stop offset="1" stop-color="#f0871e" stop-opacity="0"/></radialGradient><radialGradient id="vga618889" cx="50%" cy="42%" r="76%"><stop offset="0.40" stop-color="#000" stop-opacity="0"/><stop offset="1" stop-color="#000" stop-opacity="0.60"/></radialGradient><linearGradient id="gga618889" x1="0" y1="0" x2="1" y2="1"><stop offset="0" stop-color="#f0871e"/><stop offset="1" stop-color="#ffb870"/></linearGradient></defs><rect width="900" height="700" fill="url(#bga618889)"/><g filter="url(#bla618889)"><circle cx="782" cy="591" r="237" fill="#243090" opacity="0.34"/><circle cx="195" cy="153" r="302" fill="#f0871e" opacity="0.14"/><circle cx="190" cy="213" r="339" fill="#ffb870" opacity="0.1"/><circle cx="445" cy="94" r="227" fill="#243090" opacity="0.22"/></g><rect width="900" height="700" fill="url(#dta618889)"/><circle cx="792" cy="70" r="144" fill="none" stroke="#f0871e" stroke-opacity="0.30" stroke-width="1.6"/><circle cx="792" cy="70" r="261" fill="none" stroke="#f0871e" stroke-opacity="0.25" stroke-width="1.6"/><circle cx="792" cy="70" r="378" fill="none" stroke="#f0871e" stroke-opacity="0.20" stroke-width="1.6"/><circle cx="792" cy="70" r="495" fill="none" stroke="#f0871e" stroke-opacity="0.15" stroke-width="1.6"/><circle cx="792" cy="70" r="612" fill="none" stroke="#f0871e" stroke-opacity="0.10" stroke-width="1.6"/><path d="M90 0 L270 0 L558 700 L378 700 Z" fill="#ffb870" opacity="0.07"/><rect x="254" y="500" width="10" height="10" rx="1.5" fill="none" stroke="#ffb870" stroke-opacity="0.30" stroke-width="1.3"/><path d="M648 594 h10 M653 589 v10" stroke="#f0871e" stroke-opacity="0.34" stroke-width="1.3" stroke-linecap="round"/><path d="M479 592 h7 M482 589 v7" stroke="#ffb870" stroke-opacity="0.34" stroke-width="1.3" stroke-linecap="round"/><rect x="396" y="652" width="10" height="10" rx="1.5" fill="none" stroke="#ffb870" stroke-opacity="0.30" stroke-width="1.3"/><path d="M270 622 h6 M273 619 v6" stroke="#ffb870" stroke-opacity="0.34" stroke-width="1.3" stroke-linecap="round"/><path d="M769 502 h10 M775 497 v10" stroke="#f0871e" stroke-opacity="0.34" stroke-width="1.3" stroke-linecap="round"/><rect x="420" y="424" width="7" height="7" rx="1.5" fill="none" stroke="#ffb870" stroke-opacity="0.30" stroke-width="1.3"/><path d="M176 616 h8 M180 611 v8" stroke="#f0871e" stroke-opacity="0.34" stroke-width="1.3" stroke-linecap="round"/><path d="M553 436 h10 M558 431 v10" stroke="#ffb870" stroke-opacity="0.34" stroke-width="1.3" stroke-linecap="round"/><rect x="683" y="583" width="9" height="9" rx="1.5" fill="none" stroke="#ffb870" stroke-opacity="0.30" stroke-width="1.3"/><path d="M439 574 h10 M444 569 v10" stroke="#ffb870" stroke-opacity="0.34" stroke-width="1.3" stroke-linecap="round"/><path d="M199 480 h6 M202 477 v6" stroke="#f0871e" stroke-opacity="0.34" stroke-width="1.3" stroke-linecap="round"/><rect x="731" y="102" width="5" height="5" rx="1.5" fill="none" stroke="#ffb870" stroke-opacity="0.30" stroke-width="1.3"/><path d="M176 114 h8 M181 110 v8" stroke="#f0871e" stroke-opacity="0.34" stroke-width="1.3" stroke-linecap="round"/><rect width="900" height="700" fill="url(#spa618889)"/><g transform="translate(264.9 143.9) scale(15.429)" fill="none" stroke="url(#gga618889)" stroke-width="0.9" stroke-linecap="round" stroke-linejoin="round" filter="url(#gla618889)"><circle cx="9" cy="8" r="3.2"/><path d="M2.5 20a6.5 6.5 0 0 1 13 0"/><path d="M16 5.5a3.2 3.2 0 0 1 0 6M18 20a6.4 6.4 0 0 0-2.2-4.8"/></g><rect x="0" y="587" width="60" height="113" rx="4" fill="#060a22" opacity="0.55"/><rect x="65" y="576" width="70" height="124" rx="4" fill="#060a22" opacity="0.67"/><rect x="140" y="538" width="63" height="162" rx="4" fill="#060a22" opacity="0.79"/><rect x="208" y="549" width="27" height="151" rx="4" fill="#060a22" opacity="0.55"/><rect x="239" y="556" width="70" height="144" rx="4" fill="#060a22" opacity="0.67"/><rect x="315" y="550" width="49" height="150" rx="4" fill="#060a22" opacity="0.79"/><rect x="368" y="642" width="40" height="58" rx="4" fill="#060a22" opacity="0.55"/><rect x="414" y="617" width="67" height="83" rx="4" fill="#060a22" opacity="0.67"/><rect x="485" y="528" width="40" height="172" rx="4" fill="#060a22" opacity="0.79"/><rect x="530" y="580" width="66" height="120" rx="4" fill="#060a22" opacity="0.55"/><rect x="601" y="611" width="61" height="89" rx="4" fill="#060a22" opacity="0.67"/><rect x="666" y="528" width="54" height="172" rx="4" fill="#060a22" opacity="0.79"/><rect x="725" y="548" width="66" height="152" rx="4" fill="#060a22" opacity="0.55"/><rect x="795" y="520" width="30" height="180" rx="4" fill="#060a22" opacity="0.67"/><rect x="831" y="525" width="61" height="175" rx="4" fill="#060a22" opacity="0.79"/><rect x="897" y="544" width="45" height="156" rx="4" fill="#060a22" opacity="0.55"/><rect width="900" height="700" fill="url(#vga618889)"/><rect width="900" height="700" filter="url(#gra618889)" opacity="0.055"/></svg>