<svg xmlns="http://www.w3.org/2000/svg" viewBox="0 0 900 620" width="900" height="620" role="img" aria-label="decorative artwork"><defs><linearGradient id="bga591153" x1="0" y1="0" x2="1" y2="1"><stop offset="0" stop-color="#0b1220"/><stop offset="0.5" stop-color="#1e293b"/><stop offset="1" stop-color="#0b1220"/></linearGradient><filter id="bla591153" x="-40%" y="-40%" width="180%" height="180%"><feGaussianBlur stdDeviation="76"/></filter><filter id="gla591153" x="-60%" y="-60%" width="220%" height="220%"><feGaussianBlur stdDeviation="7" result="b"/><feMerge><feMergeNode in="b"/><feMergeNode in="SourceGraphic"/></feMerge></filter><filter id="gra591153" x="0" y="0" width="100%" height="100%"><feTurbulence type="fractalNoise" baseFrequency="0.9" numOctaves="3" stitchTiles="stitch"/><feColorMatrix type="saturate" values="0"/></filter><pattern id="dta591153" width="30" height="30" patternUnits="userSpaceOnUse"><circle cx="1.8" cy="1.8" r="1.5" fill="#cbd5e1" fill-opacity="0.16"/></pattern><radialGradient id="spa591153" cx="50%" cy="47%" r="42%"><stop offset="0" stop-color="#f0871e" stop-opacity="0.34"/><stop offset="1" stop-color="#f0871e" stop-opacity="0"/></radialGradient><radialGradient id="vga591153" cx="50%" cy="42%" r="76%"><stop offset="0.40" stop-color="#000" stop-opacity="0"/><stop offset="1" stop-color="#000" stop-opacity="0.60"/></radialGradient><linearGradient id="gga591153" x1="0" y1="0" x2="1" y2="1"><stop offset="0" stop-color="#f0871e"/><stop offset="1" stop-color="#cbd5e1"/></linearGradient></defs><rect width="900" height="620" fill="url(#bga591153)"/><g filter="url(#bla591153)"><circle cx="907" cy="531" r="291" fill="#3f5b80" opacity="0.34"/><circle cx="791" cy="566" r="211" fill="#f0871e" opacity="0.14"/><circle cx="506" cy="153" r="265" fill="#cbd5e1" opacity="0.1"/><circle cx="851" cy="80" r="275" fill="#3f5b80" opacity="0.22"/></g><rect width="900" height="620" fill="url(#dta591153)"/><circle cx="792" cy="62" r="144" fill="none" stroke="#f0871e" stroke-opacity="0.30" stroke-width="1.6"/><circle cx="792" cy="62" r="261" fill="none" stroke="#f0871e" stroke-opacity="0.25" stroke-width="1.6"/><circle cx="792" cy="62" r="378" fill="none" stroke="#f0871e" stroke-opacity="0.20" stroke-width="1.6"/><circle cx="792" cy="62" r="495" fill="none" stroke="#f0871e" stroke-opacity="0.15" stroke-width="1.6"/><circle cx="792" cy="62" r="612" fill="none" stroke="#f0871e" stroke-opacity="0.10" stroke-width="1.6"/><path d="M90 0 L270 0 L558 620 L378 620 Z" fill="#cbd5e1" opacity="0.07"/><rect x="585" y="130" width="10" height="10" rx="1.5" fill="none" stroke="#cbd5e1" stroke-opacity="0.30" stroke-width="1.3"/><path d="M838 463 h5 M840 460 v5" stroke="#f0871e" stroke-opacity="0.34" stroke-width="1.3" stroke-linecap="round"/><path d="M569 311 h9 M574 306 v9" stroke="#cbd5e1" stroke-opacity="0.34" stroke-width="1.3" stroke-linecap="round"/><rect x="689" y="551" width="5" height="5" rx="1.5" fill="none" stroke="#cbd5e1" stroke-opacity="0.30" stroke-width="1.3"/><path d="M856 176 h10 M861 171 v10" stroke="#cbd5e1" stroke-opacity="0.34" stroke-width="1.3" stroke-linecap="round"/><path d="M797 127 h7 M801 124 v7" stroke="#f0871e" stroke-opacity="0.34" stroke-width="1.3" stroke-linecap="round"/><rect x="66" y="421" width="6" height="6" rx="1.5" fill="none" stroke="#cbd5e1" stroke-opacity="0.30" stroke-width="1.3"/><path d="M133 520 h10 M137 515 v10" stroke="#f0871e" stroke-opacity="0.34" stroke-width="1.3" stroke-linecap="round"/><path d="M187 279 h10 M192 275 v10" stroke="#cbd5e1" stroke-opacity="0.34" stroke-width="1.3" stroke-linecap="round"/><rect x="657" y="275" width="7" height="7" rx="1.5" fill="none" stroke="#cbd5e1" stroke-opacity="0.30" stroke-width="1.3"/><path d="M661 422 h8 M665 418 v8" stroke="#cbd5e1" stroke-opacity="0.34" stroke-width="1.3" stroke-linecap="round"/><path d="M407 451 h11 M413 445 v11" stroke="#f0871e" stroke-opacity="0.34" stroke-width="1.3" stroke-linecap="round"/><rect x="848" y="547" width="9" height="9" rx="1.5" fill="none" stroke="#cbd5e1" stroke-opacity="0.30" stroke-width="1.3"/><path d="M242 483 h7 M245 479 v7" stroke="#f0871e" stroke-opacity="0.34" stroke-width="1.3" stroke-linecap="round"/><rect width="900" height="620" fill="url(#spa591153)"/><g transform="translate(286.0 127.4) scale(13.666)" fill="none" stroke="url(#gga591153)" stroke-width="0.9" stroke-linecap="round" stroke-linejoin="round" filter="url(#gla591153)"><path d="M4 21V6l7-3v18M11 21h9V10l-9-3"/><path d="M7 9h1M7 13h1M7 17h1M14.5 12h1M14.5 16h1M18 12h.5M18 16h.5"/></g><rect x="0" y="510" width="59" height="110" rx="4" fill="#0b1220" opacity="0.55"/><rect x="64" y="542" width="38" height="78" rx="4" fill="#0b1220" opacity="0.67"/><rect x="107" y="478" width="58" height="142" rx="4" fill="#0b1220" opacity="0.79"/><rect x="170" y="579" width="62" height="41" rx="4" fill="#0b1220" opacity="0.55"/><rect x="238" y="476" width="34" height="144" rx="4" fill="#0b1220" opacity="0.67"/><rect x="277" y="557" width="68" height="63" rx="4" fill="#0b1220" opacity="0.79"/><rect x="350" y="582" width="50" height="38" rx="4" fill="#0b1220" opacity="0.55"/><rect x="405" y="519" width="29" height="101" rx="4" fill="#0b1220" opacity="0.67"/><rect x="439" y="581" width="47" height="39" rx="4" fill="#0b1220" opacity="0.79"/><rect x="491" y="461" width="52" height="159" rx="4" fill="#0b1220" opacity="0.55"/><rect x="548" y="566" width="40" height="54" rx="4" fill="#0b1220" opacity="0.67"/><rect x="594" y="481" width="42" height="139" rx="4" fill="#0b1220" opacity="0.79"/><rect x="641" y="576" width="52" height="44" rx="4" fill="#0b1220" opacity="0.55"/><rect x="697" y="512" width="65" height="108" rx="4" fill="#0b1220" opacity="0.67"/><rect x="767" y="540" width="46" height="80" rx="4" fill="#0b1220" opacity="0.79"/><rect x="818" y="545" width="38" height="75" rx="4" fill="#0b1220" opacity="0.55"/><rect x="861" y="547" width="46" height="73" rx="4" fill="#0b1220" opacity="0.67"/><rect width="900" height="620" fill="url(#vga591153)"/><rect width="900" height="620" filter="url(#gra591153)" opacity="0.055"/></svg>