<svg xmlns="http://www.w3.org/2000/svg" viewBox="0 0 900 640" width="900" height="640" role="img" aria-label="decorative artwork"><defs><linearGradient id="bga219246" x1="0" y1="0" x2="1" y2="1"><stop offset="0" stop-color="#2a1704"/><stop offset="0.5" stop-color="#6b3f05"/><stop offset="1" stop-color="#2a1704"/></linearGradient><filter id="bla219246" x="-40%" y="-40%" width="180%" height="180%"><feGaussianBlur stdDeviation="76"/></filter><filter id="gla219246" x="-60%" y="-60%" width="220%" height="220%"><feGaussianBlur stdDeviation="8" result="b"/><feMerge><feMergeNode in="b"/><feMergeNode in="SourceGraphic"/></feMerge></filter><filter id="gra219246" x="0" y="0" width="100%" height="100%"><feTurbulence type="fractalNoise" baseFrequency="0.9" numOctaves="3" stitchTiles="stitch"/><feColorMatrix type="saturate" values="0"/></filter><pattern id="dta219246" width="30" height="30" patternUnits="userSpaceOnUse"><circle cx="1.8" cy="1.8" r="1.5" fill="#ffb870" fill-opacity="0.16"/></pattern><radialGradient id="spa219246" cx="50%" cy="47%" r="42%"><stop offset="0" stop-color="#fff0c9" stop-opacity="0.34"/><stop offset="1" stop-color="#fff0c9" stop-opacity="0"/></radialGradient><radialGradient id="vga219246" cx="50%" cy="42%" r="76%"><stop offset="0.40" stop-color="#000" stop-opacity="0"/><stop offset="1" stop-color="#000" stop-opacity="0.60"/></radialGradient><linearGradient id="gga219246" x1="0" y1="0" x2="1" y2="1"><stop offset="0" stop-color="#fff0c9"/><stop offset="1" stop-color="#ffb870"/></linearGradient></defs><rect width="900" height="640" fill="url(#bga219246)"/><g filter="url(#bla219246)"><circle cx="656" cy="287" r="315" fill="#f0871e" opacity="0.34"/><circle cx="421" cy="324" r="208" fill="#fff0c9" opacity="0.14"/><circle cx="199" cy="304" r="264" fill="#ffb870" opacity="0.1"/><circle cx="852" cy="93" r="320" fill="#f0871e" opacity="0.22"/></g><rect width="900" height="640" fill="url(#dta219246)"/><circle cx="792" cy="64" r="144" fill="none" stroke="#fff0c9" stroke-opacity="0.30" stroke-width="1.6"/><circle cx="792" cy="64" r="261" fill="none" stroke="#fff0c9" stroke-opacity="0.25" stroke-width="1.6"/><circle cx="792" cy="64" r="378" fill="none" stroke="#fff0c9" stroke-opacity="0.20" stroke-width="1.6"/><circle cx="792" cy="64" r="495" fill="none" stroke="#fff0c9" stroke-opacity="0.15" stroke-width="1.6"/><circle cx="792" cy="64" r="612" fill="none" stroke="#fff0c9" stroke-opacity="0.10" stroke-width="1.6"/><path d="M90 0 L270 0 L558 640 L378 640 Z" fill="#ffb870" opacity="0.07"/><rect x="133" y="569" width="8" height="8" rx="1.5" fill="none" stroke="#ffb870" stroke-opacity="0.30" stroke-width="1.3"/><path d="M418 591 h7 M422 588 v7" stroke="#fff0c9" stroke-opacity="0.34" stroke-width="1.3" stroke-linecap="round"/><path d="M217 212 h6 M220 209 v6" stroke="#ffb870" stroke-opacity="0.34" stroke-width="1.3" stroke-linecap="round"/><rect x="59" y="281" width="8" height="8" rx="1.5" fill="none" stroke="#ffb870" stroke-opacity="0.30" stroke-width="1.3"/><path d="M738 159 h6 M741 156 v6" stroke="#ffb870" stroke-opacity="0.34" stroke-width="1.3" stroke-linecap="round"/><path d="M615 463 h6 M618 460 v6" stroke="#fff0c9" stroke-opacity="0.34" stroke-width="1.3" stroke-linecap="round"/><rect x="278" y="480" width="8" height="8" rx="1.5" fill="none" stroke="#ffb870" stroke-opacity="0.30" stroke-width="1.3"/><path d="M852 589 h5 M854 587 v5" stroke="#fff0c9" stroke-opacity="0.34" stroke-width="1.3" stroke-linecap="round"/><path d="M428 82 h7 M432 78 v7" stroke="#ffb870" stroke-opacity="0.34" stroke-width="1.3" stroke-linecap="round"/><rect x="479" y="418" width="5" height="5" rx="1.5" fill="none" stroke="#ffb870" stroke-opacity="0.30" stroke-width="1.3"/><path d="M430 74 h9 M435 70 v9" stroke="#ffb870" stroke-opacity="0.34" stroke-width="1.3" stroke-linecap="round"/><path d="M606 503 h6 M609 501 v6" stroke="#fff0c9" stroke-opacity="0.34" stroke-width="1.3" stroke-linecap="round"/><rect x="297" y="331" width="10" height="10" rx="1.5" fill="none" stroke="#ffb870" stroke-opacity="0.30" stroke-width="1.3"/><path d="M747 572 h8 M750 568 v8" stroke="#fff0c9" stroke-opacity="0.34" stroke-width="1.3" stroke-linecap="round"/><rect width="900" height="640" fill="url(#spa219246)"/><g transform="translate(302.8 153.6) scale(12.267)" fill="none" stroke="url(#gga219246)" stroke-width="0.9" stroke-linecap="round" stroke-linejoin="round" filter="url(#gla219246)"><path d="M5 15c-1 2-1 5-1 5s3 0 5-1"/><path d="M14.5 4.5C17 2 21 3 21 3s1 4-1.5 6.5L14 15l-5-5 5.5-5.5Z"/><path d="m9 10-4 1 2 2M14 15l-1 4 2-2"/></g><rect x="0" y="524" width="54" height="116" rx="4" fill="#2a1704" opacity="0.55"/><rect x="59" y="586" width="31" height="54" rx="4" fill="#2a1704" opacity="0.67"/><rect x="95" y="579" width="60" height="61" rx="4" fill="#2a1704" opacity="0.79"/><rect x="160" y="529" width="43" height="111" rx="4" fill="#2a1704" opacity="0.55"/><rect x="208" y="547" width="39" height="93" rx="4" fill="#2a1704" opacity="0.67"/><rect x="252" y="586" width="43" height="54" rx="4" fill="#2a1704" opacity="0.79"/><rect x="300" y="491" width="68" height="149" rx="4" fill="#2a1704" opacity="0.55"/><rect x="373" y="503" width="60" height="137" rx="4" fill="#2a1704" opacity="0.67"/><rect x="438" y="498" width="32" height="142" rx="4" fill="#2a1704" opacity="0.79"/><rect x="476" y="507" width="65" height="133" rx="4" fill="#2a1704" opacity="0.55"/><rect x="546" y="486" width="53" height="154" rx="4" fill="#2a1704" opacity="0.67"/><rect x="604" y="497" width="52" height="143" rx="4" fill="#2a1704" opacity="0.79"/><rect x="661" y="575" width="71" height="65" rx="4" fill="#2a1704" opacity="0.55"/><rect x="737" y="484" width="43" height="156" rx="4" fill="#2a1704" opacity="0.67"/><rect x="784" y="555" width="33" height="85" rx="4" fill="#2a1704" opacity="0.79"/><rect x="822" y="490" width="39" height="150" rx="4" fill="#2a1704" opacity="0.55"/><rect x="866" y="575" width="71" height="65" rx="4" fill="#2a1704" opacity="0.67"/><rect width="900" height="640" fill="url(#vga219246)"/><rect width="900" height="640" filter="url(#gra219246)" opacity="0.055"/></svg>