<svg xmlns="http://www.w3.org/2000/svg" viewBox="0 0 900 640" width="900" height="640" role="img" aria-label="decorative artwork"><defs><linearGradient id="bga529020" x1="0" y1="0" x2="1" y2="1"><stop offset="0" stop-color="#04211f"/><stop offset="0.5" stop-color="#0b4f47"/><stop offset="1" stop-color="#04211f"/></linearGradient><filter id="bla529020" x="-40%" y="-40%" width="180%" height="180%"><feGaussianBlur stdDeviation="76"/></filter><filter id="gla529020" x="-60%" y="-60%" width="220%" height="220%"><feGaussianBlur stdDeviation="8" result="b"/><feMerge><feMergeNode in="b"/><feMergeNode in="SourceGraphic"/></feMerge></filter><filter id="gra529020" x="0" y="0" width="100%" height="100%"><feTurbulence type="fractalNoise" baseFrequency="0.9" numOctaves="3" stitchTiles="stitch"/><feColorMatrix type="saturate" values="0"/></filter><pattern id="dta529020" width="30" height="30" patternUnits="userSpaceOnUse"><circle cx="1.8" cy="1.8" r="1.5" fill="#7ee8d8" fill-opacity="0.16"/></pattern><radialGradient id="spa529020" cx="50%" cy="47%" r="42%"><stop offset="0" stop-color="#ffb870" stop-opacity="0.34"/><stop offset="1" stop-color="#ffb870" stop-opacity="0"/></radialGradient><radialGradient id="vga529020" cx="50%" cy="42%" r="76%"><stop offset="0.40" stop-color="#000" stop-opacity="0"/><stop offset="1" stop-color="#000" stop-opacity="0.60"/></radialGradient><linearGradient id="gga529020" x1="0" y1="0" x2="1" y2="1"><stop offset="0" stop-color="#ffb870"/><stop offset="1" stop-color="#7ee8d8"/></linearGradient></defs><rect width="900" height="640" fill="url(#bga529020)"/><g filter="url(#bla529020)"><circle cx="884" cy="588" r="340" fill="#12a594" opacity="0.34"/><circle cx="363" cy="251" r="184" fill="#ffb870" opacity="0.14"/><circle cx="815" cy="637" r="242" fill="#7ee8d8" opacity="0.1"/><circle cx="-19" cy="629" r="227" fill="#12a594" opacity="0.22"/></g><rect width="900" height="640" fill="url(#dta529020)"/><circle cx="792" cy="64" r="144" fill="none" stroke="#ffb870" stroke-opacity="0.30" stroke-width="1.6"/><circle cx="792" cy="64" r="261" fill="none" stroke="#ffb870" stroke-opacity="0.25" stroke-width="1.6"/><circle cx="792" cy="64" r="378" fill="none" stroke="#ffb870" stroke-opacity="0.20" stroke-width="1.6"/><circle cx="792" cy="64" r="495" fill="none" stroke="#ffb870" stroke-opacity="0.15" stroke-width="1.6"/><circle cx="792" cy="64" r="612" fill="none" stroke="#ffb870" stroke-opacity="0.10" stroke-width="1.6"/><path d="M90 0 L270 0 L558 640 L378 640 Z" fill="#7ee8d8" opacity="0.07"/><rect x="820" y="43" width="5" height="5" rx="1.5" fill="none" stroke="#7ee8d8" stroke-opacity="0.30" stroke-width="1.3"/><path d="M518 554 h9 M523 549 v9" stroke="#ffb870" stroke-opacity="0.34" stroke-width="1.3" stroke-linecap="round"/><path d="M694 410 h8 M698 405 v8" stroke="#7ee8d8" stroke-opacity="0.34" stroke-width="1.3" stroke-linecap="round"/><rect x="843" y="178" width="7" height="7" rx="1.5" fill="none" stroke="#7ee8d8" stroke-opacity="0.30" stroke-width="1.3"/><path d="M271 336 h6 M274 333 v6" stroke="#7ee8d8" stroke-opacity="0.34" stroke-width="1.3" stroke-linecap="round"/><path d="M87 532 h10 M92 527 v10" stroke="#ffb870" stroke-opacity="0.34" stroke-width="1.3" stroke-linecap="round"/><rect x="797" y="320" width="10" height="10" rx="1.5" fill="none" stroke="#7ee8d8" stroke-opacity="0.30" stroke-width="1.3"/><path d="M327 540 h10 M332 535 v10" stroke="#ffb870" stroke-opacity="0.34" stroke-width="1.3" stroke-linecap="round"/><path d="M480 566 h9 M485 561 v9" stroke="#7ee8d8" stroke-opacity="0.34" stroke-width="1.3" stroke-linecap="round"/><rect x="368" y="121" width="9" height="9" rx="1.5" fill="none" stroke="#7ee8d8" stroke-opacity="0.30" stroke-width="1.3"/><path d="M477 427 h9 M481 422 v9" stroke="#7ee8d8" stroke-opacity="0.34" stroke-width="1.3" stroke-linecap="round"/><path d="M50 402 h9 M55 397 v9" stroke="#ffb870" stroke-opacity="0.34" stroke-width="1.3" stroke-linecap="round"/><rect x="339" y="597" width="10" height="10" rx="1.5" fill="none" stroke="#7ee8d8" stroke-opacity="0.30" stroke-width="1.3"/><path d="M657 552 h9 M662 548 v9" stroke="#ffb870" stroke-opacity="0.34" stroke-width="1.3" stroke-linecap="round"/><rect width="900" height="640" fill="url(#spa529020)"/><g transform="translate(302.8 153.6) scale(12.267)" fill="none" stroke="url(#gga529020)" stroke-width="0.9" stroke-linecap="round" stroke-linejoin="round" filter="url(#gla529020)"><circle cx="15" cy="4.5" r="2"/><path d="m13.5 9-3.5 2 1.5 4-3 5M13.5 9l3 2 3.5-1M13.5 9 9 10l-3 4"/></g><rect x="0" y="484" width="41" height="156" rx="4" fill="#04211f" opacity="0.55"/><rect x="46" y="573" width="51" height="67" rx="4" fill="#04211f" opacity="0.67"/><rect x="102" y="518" width="67" height="122" rx="4" fill="#04211f" opacity="0.79"/><rect x="173" y="534" width="63" height="106" rx="4" fill="#04211f" opacity="0.55"/><rect x="242" y="502" width="66" height="138" rx="4" fill="#04211f" opacity="0.67"/><rect x="313" y="567" width="68" height="73" rx="4" fill="#04211f" opacity="0.79"/><rect x="385" y="601" width="42" height="39" rx="4" fill="#04211f" opacity="0.55"/><rect x="432" y="573" width="49" height="67" rx="4" fill="#04211f" opacity="0.67"/><rect x="487" y="513" width="61" height="127" rx="4" fill="#04211f" opacity="0.79"/><rect x="553" y="492" width="47" height="148" rx="4" fill="#04211f" opacity="0.55"/><rect x="605" y="600" width="49" height="40" rx="4" fill="#04211f" opacity="0.67"/><rect x="659" y="514" width="52" height="126" rx="4" fill="#04211f" opacity="0.79"/><rect x="716" y="521" width="59" height="119" rx="4" fill="#04211f" opacity="0.55"/><rect x="780" y="478" width="58" height="162" rx="4" fill="#04211f" opacity="0.67"/><rect x="843" y="495" width="40" height="145" rx="4" fill="#04211f" opacity="0.79"/><rect x="889" y="587" width="32" height="53" rx="4" fill="#04211f" opacity="0.55"/><rect width="900" height="640" fill="url(#vga529020)"/><rect width="900" height="640" filter="url(#gra529020)" opacity="0.055"/></svg>