<svg xmlns="http://www.w3.org/2000/svg" viewBox="0 0 900 560" width="900" height="560" role="img" aria-label="decorative artwork"><defs><linearGradient id="bga772879" x1="0" y1="0" x2="1" y2="1"><stop offset="0" stop-color="#1c0a20"/><stop offset="0.5" stop-color="#4a1747"/><stop offset="1" stop-color="#1c0a20"/></linearGradient><filter id="bla772879" x="-40%" y="-40%" width="180%" height="180%"><feGaussianBlur stdDeviation="76"/></filter><filter id="gla772879" x="-60%" y="-60%" width="220%" height="220%"><feGaussianBlur stdDeviation="7" result="b"/><feMerge><feMergeNode in="b"/><feMergeNode in="SourceGraphic"/></feMerge></filter><filter id="gra772879" x="0" y="0" width="100%" height="100%"><feTurbulence type="fractalNoise" baseFrequency="0.9" numOctaves="3" stitchTiles="stitch"/><feColorMatrix type="saturate" values="0"/></filter><pattern id="dta772879" width="30" height="30" patternUnits="userSpaceOnUse"><circle cx="1.8" cy="1.8" r="1.5" fill="#f0abfc" fill-opacity="0.16"/></pattern><radialGradient id="spa772879" cx="50%" cy="47%" r="42%"><stop offset="0" stop-color="#ffb870" stop-opacity="0.34"/><stop offset="1" stop-color="#ffb870" stop-opacity="0"/></radialGradient><radialGradient id="vga772879" cx="50%" cy="42%" r="76%"><stop offset="0.40" stop-color="#000" stop-opacity="0"/><stop offset="1" stop-color="#000" stop-opacity="0.60"/></radialGradient><linearGradient id="gga772879" x1="0" y1="0" x2="1" y2="1"><stop offset="0" stop-color="#ffb870"/><stop offset="1" stop-color="#f0abfc"/></linearGradient></defs><rect width="900" height="560" fill="url(#bga772879)"/><g filter="url(#bla772879)"><circle cx="444" cy="225" r="207" fill="#8b3a7a" opacity="0.34"/><circle cx="202" cy="7" r="237" fill="#ffb870" opacity="0.14"/><circle cx="63" cy="273" r="301" fill="#f0abfc" opacity="0.1"/><circle cx="532" cy="571" r="291" fill="#8b3a7a" opacity="0.22"/></g><rect width="900" height="560" fill="url(#dta772879)"/><circle cx="792" cy="56" r="144" fill="none" stroke="#ffb870" stroke-opacity="0.30" stroke-width="1.6"/><circle cx="792" cy="56" r="261" fill="none" stroke="#ffb870" stroke-opacity="0.25" stroke-width="1.6"/><circle cx="792" cy="56" r="378" fill="none" stroke="#ffb870" stroke-opacity="0.20" stroke-width="1.6"/><circle cx="792" cy="56" r="495" fill="none" stroke="#ffb870" stroke-opacity="0.15" stroke-width="1.6"/><circle cx="792" cy="56" r="612" fill="none" stroke="#ffb870" stroke-opacity="0.10" stroke-width="1.6"/><path d="M90 0 L270 0 L558 560 L378 560 Z" fill="#f0abfc" opacity="0.07"/><rect x="755" y="259" width="8" height="8" rx="1.5" fill="none" stroke="#f0abfc" stroke-opacity="0.30" stroke-width="1.3"/><path d="M423 225 h8 M427 221 v8" stroke="#ffb870" stroke-opacity="0.34" stroke-width="1.3" stroke-linecap="round"/><path d="M138 49 h6 M141 46 v6" stroke="#f0abfc" stroke-opacity="0.34" stroke-width="1.3" stroke-linecap="round"/><rect x="638" y="37" width="7" height="7" rx="1.5" fill="none" stroke="#f0abfc" stroke-opacity="0.30" stroke-width="1.3"/><path d="M59 45 h6 M62 42 v6" stroke="#f0abfc" stroke-opacity="0.34" stroke-width="1.3" stroke-linecap="round"/><path d="M701 278 h9 M705 273 v9" stroke="#ffb870" stroke-opacity="0.34" stroke-width="1.3" stroke-linecap="round"/><rect x="863" y="457" width="9" height="9" rx="1.5" fill="none" stroke="#f0abfc" stroke-opacity="0.30" stroke-width="1.3"/><path d="M638 462 h7 M642 459 v7" stroke="#ffb870" stroke-opacity="0.34" stroke-width="1.3" stroke-linecap="round"/><path d="M287 282 h8 M291 278 v8" stroke="#f0abfc" stroke-opacity="0.34" stroke-width="1.3" stroke-linecap="round"/><rect x="189" y="312" width="10" height="10" rx="1.5" fill="none" stroke="#f0abfc" stroke-opacity="0.30" stroke-width="1.3"/><path d="M147 518 h6 M150 515 v6" stroke="#f0abfc" stroke-opacity="0.34" stroke-width="1.3" stroke-linecap="round"/><path d="M332 157 h6 M334 154 v6" stroke="#ffb870" stroke-opacity="0.34" stroke-width="1.3" stroke-linecap="round"/><rect x="429" y="467" width="5" height="5" rx="1.5" fill="none" stroke="#f0abfc" stroke-opacity="0.30" stroke-width="1.3"/><path d="M856 412 h6 M859 409 v6" stroke="#ffb870" stroke-opacity="0.34" stroke-width="1.3" stroke-linecap="round"/><rect width="900" height="560" fill="url(#spa772879)"/><g transform="translate(321.2 134.4) scale(10.733)" fill="none" stroke="url(#gga772879)" stroke-width="0.9" stroke-linecap="round" stroke-linejoin="round" filter="url(#gla772879)"><path d="M3 8h4l1.5-2h7L17 8h4v11H3z"/><circle cx="12" cy="13" r="3.2"/></g><rect x="0" y="420" width="46" height="140" rx="4" fill="#1c0a20" opacity="0.55"/><rect x="51" y="517" width="71" height="43" rx="4" fill="#1c0a20" opacity="0.67"/><rect x="127" y="491" width="46" height="69" rx="4" fill="#1c0a20" opacity="0.79"/><rect x="178" y="513" width="63" height="47" rx="4" fill="#1c0a20" opacity="0.55"/><rect x="247" y="443" width="37" height="117" rx="4" fill="#1c0a20" opacity="0.67"/><rect x="289" y="474" width="30" height="86" rx="4" fill="#1c0a20" opacity="0.79"/><rect x="324" y="461" width="62" height="99" rx="4" fill="#1c0a20" opacity="0.55"/><rect x="391" y="473" width="47" height="87" rx="4" fill="#1c0a20" opacity="0.67"/><rect x="443" y="495" width="51" height="65" rx="4" fill="#1c0a20" opacity="0.79"/><rect x="499" y="482" width="51" height="78" rx="4" fill="#1c0a20" opacity="0.55"/><rect x="555" y="498" width="38" height="62" rx="4" fill="#1c0a20" opacity="0.67"/><rect x="597" y="518" width="56" height="42" rx="4" fill="#1c0a20" opacity="0.79"/><rect x="658" y="438" width="44" height="122" rx="4" fill="#1c0a20" opacity="0.55"/><rect x="707" y="440" width="46" height="120" rx="4" fill="#1c0a20" opacity="0.67"/><rect x="758" y="501" width="42" height="59" rx="4" fill="#1c0a20" opacity="0.79"/><rect x="806" y="449" width="30" height="111" rx="4" fill="#1c0a20" opacity="0.55"/><rect x="841" y="471" width="55" height="89" rx="4" fill="#1c0a20" opacity="0.67"/><rect width="900" height="560" fill="url(#vga772879)"/><rect width="900" height="560" filter="url(#gra772879)" opacity="0.055"/></svg>